HIERARCHY
ROOT hip
{
  OFFSET 0 0 0
  CHANNELS 6 Xposition Yposition Zposition Zrotation Yrotation Xrotation
  JOINT abdomen
  {
    OFFSET 0 20.6881 -0.73152
    CHANNELS 3 Zrotation Xrotation Yrotation
    JOINT chest
    {
      OFFSET 0 11.7043 -0.48768
      CHANNELS 3 Zrotation Xrotation Yrotation
      JOINT neck
      {
        OFFSET 0 22.1894 -2.19456
        CHANNELS 3 Zrotation Xrotation Yrotation
        JOINT head
        {
          OFFSET -0.24384 7.07133 1.2192
          CHANNELS 3 Zrotation Xrotation Yrotation
          JOINT leftEye
          {
            OFFSET 4.14528 8.04674 8.04672
            CHANNELS 3 Zrotation Xrotation Yrotation
            End Site
            {
              OFFSET 1 0 0
            }
          }
          JOINT rightEye
          {
            OFFSET -3.6576 8.04674 8.04672
            CHANNELS 3 Zrotation Xrotation Yrotation
            End Site
            {
              OFFSET 1 0 0
            }
          }
        }
      }
      JOINT rCollar
      {
        OFFSET -2.68224 19.2634 -4.8768
        CHANNELS 3 Zrotation Xrotation Yrotation
        JOINT rShldr
        {
          OFFSET -8.77824 -1.95073 1.46304
          CHANNELS 3 Zrotation Xrotation Yrotation
          JOINT rForeArm
          {
            OFFSET -28.1742 -1.7115 0.48768
            CHANNELS 3 Zrotation Xrotation Yrotation
            JOINT rHand
            {
              OFFSET -22.5879 0.773209 7.07136
              CHANNELS 3 Zrotation Xrotation Yrotation
              JOINT rThumb1
              {
                OFFSET -1.2192 -0.487915 3.41376
                CHANNELS 3 Zrotation Xrotation Yrotation
                JOINT rThumb2
                {
                  OFFSET -3.37035 -0.52449 3.41376
                  CHANNELS 3 Zrotation Xrotation Yrotation
                  End Site
                  {
                    OFFSET -1.78271 -1.18214 1.43049
                  }
                }
              }
              JOINT rIndex1
              {
                OFFSET -7.75947 0.938293 5.60832
                CHANNELS 3 Zrotation Xrotation Yrotation
                JOINT rIndex2
                {
                  OFFSET -2.54057 -0.884171 1.56538
                  CHANNELS 3 Zrotation Xrotation Yrotation
                  End Site
                  {
                    OFFSET -1.62519 -0.234802 1.16502
                  }
                }
              }
              JOINT rMid1
              {
                OFFSET -8.24714 1.18213 3.41376
                CHANNELS 3 Zrotation Xrotation Yrotation
                JOINT rMid2
                {
                  OFFSET -3.10165 -0.590103 1.0647
                  CHANNELS 3 Zrotation Xrotation Yrotation
                  End Site
                  {
                    OFFSET -2.48547 -0.328903 0.83742
                  }
                }
              }
              JOINT rRing1
              {
                OFFSET -8.82822 0.546677 1.51678
                CHANNELS 3 Zrotation Xrotation Yrotation
                JOINT rRing2
                {
                  OFFSET -2.60934 -0.819778 -0.0198488
                  CHANNELS 3 Zrotation Xrotation Yrotation
                  End Site
                  {
                    OFFSET -2.33842 -0.294052 0.168128
                  }
                }
              }
              JOINT rPinky1
              {
                OFFSET -8.27202 -0.0477905 -0.4584
                CHANNELS 3 Zrotation Xrotation Yrotation
                JOINT rPinky2
                {
                  OFFSET -1.82734 -0.647385 -0.700984
                  CHANNELS 3 Zrotation Xrotation Yrotation
                  End Site
                  {
                    OFFSET -1.69225 -0.51767 -0.607171
                  }
                }
              }
            }
          }
        }
      }
      JOINT lCollar
      {
        OFFSET 2.68224 19.2634 -4.8768
        CHANNELS 3 Zrotation Xrotation Yrotation
        JOINT lShldr
        {
          OFFSET 8.77824 -1.95073 1.46304
          CHANNELS 3 Zrotation Xrotation Yrotation
          JOINT lForeArm
          {
            OFFSET 28.1742 -1.7115 0.48768
            CHANNELS 3 Zrotation Xrotation Yrotation
            JOINT lHand
            {
              OFFSET 22.5879 0.773209 7.07136
              CHANNELS 3 Zrotation Xrotation Yrotation
              JOINT lThumb1
              {
                OFFSET 1.2192 -0.487915 3.41376
                CHANNELS 3 Zrotation Xrotation Yrotation
                JOINT lThumb2
                {
                  OFFSET 3.37035 -0.52449 3.41376
                  CHANNELS 3 Zrotation Xrotation Yrotation
                  End Site
                  {
                    OFFSET 1.78271 -1.18214 1.43049
                  }
                }
              }
              JOINT lIndex1
              {
                OFFSET 7.75947 0.938293 5.60832
                CHANNELS 3 Zrotation Xrotation Yrotation
                JOINT lIndex2
                {
                  OFFSET 2.54057 -0.884171 1.56538
                  CHANNELS 3 Zrotation Xrotation Yrotation
                  End Site
                  {
                    OFFSET 1.62519 -0.234802 1.16502
                  }
                }
              }
              JOINT lMid1
              {
                OFFSET 8.24714 1.18213 3.41376
                CHANNELS 3 Zrotation Xrotation Yrotation
                JOINT lMid2
                {
                  OFFSET 3.10165 -0.590103 1.0647
                  CHANNELS 3 Zrotation Xrotation Yrotation
                  End Site
                  {
                    OFFSET 2.48547 -0.328903 0.83742
                  }
                }
              }
              JOINT lRing1
              {
                OFFSET 8.82822 0.546677 1.51678
                CHANNELS 3 Zrotation Xrotation Yrotation
                JOINT lRing2
                {
                  OFFSET 2.60934 -0.819778 -0.0198488
                  CHANNELS 3 Zrotation Xrotation Yrotation
                  End Site
                  {
                    OFFSET 2.33842 -0.294052 0.168128
                  }
                }
              }
              JOINT lPinky1
              {
                OFFSET 8.27202 -0.0477905 -0.4584
                CHANNELS 3 Zrotation Xrotation Yrotation
                JOINT lPinky2
                {
                  OFFSET 1.82734 -0.647385 -0.700984
                  CHANNELS 3 Zrotation Xrotation Yrotation
                  End Site
                  {
                    OFFSET 1.69225 -0.51767 -0.607171
                  }
                }
              }
            }
          }
        }
      }
    }
  }
  JOINT rButtock
  {
    OFFSET -8.77824 4.35084 1.2192
    CHANNELS 3 Zrotation Xrotation Yrotation
    JOINT rThigh
    {
      OFFSET 0 -1.70687 -2.19456
      CHANNELS 3 Zrotation Xrotation Yrotation
      JOINT rShin
      {
        OFFSET 0 -36.8199 0.73152
        CHANNELS 3 Zrotation Xrotation Yrotation
        JOINT rFoot
        {
          OFFSET 0.73152 -45.1104 -5.12064
          CHANNELS 3 Zrotation Xrotation Yrotation
          End Site
          {
            OFFSET -1.1221 -3.69964 12.103
          }
        }
      }
    }
  }
  JOINT lButtock
  {
    OFFSET 8.77824 4.35084 1.2192
    CHANNELS 3 Zrotation Xrotation Yrotation
    JOINT lThigh
    {
      OFFSET 0 -1.70687 -2.19456
      CHANNELS 3 Zrotation Xrotation Yrotation
      JOINT lShin
      {
        OFFSET 0 -36.8199 0.73152
        CHANNELS 3 Zrotation Xrotation Yrotation
        JOINT lFoot
        {
          OFFSET -0.73152 -45.1104 -5.12064
          CHANNELS 3 Zrotation Xrotation Yrotation
          End Site
          {
            OFFSET 1.1221 -3.69964 12.103
          }
        }
      }
    }
  }
}
MOTION
Frames:	4
Frame Time:	0.03333
0.0 0.0 0.0 0.0 0.0 0.0 0.0 0.0 0.0 0.0 0.0 0.0 0.0 0.0 0.0 0.0 0.0 0.0 0.0 0.0 0.0 0.0 0.0 0.0 0.0 0.0 0.0 0.0 0.0 0.0 0.0 0.0 0.0 0.0 0.0 0.0 0.0 0.0 0.0 0.0 0.0 0.0 0.0 0.0 0.0 0.0 0.0 0.0 0.0 0.0 0.0 0.0 0.0 0.0 0.0 0.0 0.0 0.0 0.0 0.0 0.0 0.0 0.0 0.0 0.0 0.0 0.0 0.0 0.0 0.0 0.0 0.0 0.0 0.0 0.0 0.0 0.0 0.0 0.0 0.0 0.0 0.0 0.0 0.0 0.0 0.0 0.0 0.0 0.0 0.0 0.0 0.0 0.0 0.0 0.0 0.0 0.0 0.0 0.0 0.0 0.0 0.0 0.0 0.0 0.0 0.0 0.0 0.0 0.0 0.0 0.0 0.0 0.0 0.0 0.0 0.0 0.0 0.0 0.0 0.0 0.0 0.0 0.0 0.0 0.0 0.0 0.0 0.0 0.0 0.0 0.0 0.0
0.2684 66.4393 0.0257 0.174026 10.206716 -1.577183 1.291396 3.786995 -80.758192 -7.522622 2.659216 64.499531 3.448939 -20.244386 26.607355 8.345896 57.129678 168.094836 -55.3163 -15.985852 29.997558 -18.371101 6.64153 -39.477984 -74.498787 -32.08091 163.53263 -113.869348 65.185743 130.08071 -16.855457 -60.120668 28.161455 119.656533 55.480175 -36.267626 -107.297213 -75.828158 -11.869691 -140.672663 54.03045 -81.420223 105.675368 42.577593 -122.008103 96.227451 48.158263 -3.312315 -22.378978 -31.223376 -52.383687 141.321722 -16.461559 -150.808136 90.634085 44.188561 -100.379802 36.342762 -48.741334 34.134997 -161.025958 26.287888 -105.454266 -7.239933 2.023009 19.030046 86.835722 -55.081875 -161.771678 -2.387917 15.750511 -14.874212 176.022044 60.910042 28.870139 155.442468 52.435271 -59.251917 -81.934728 3.003067 -37.441856 163.572163 -8.368619 4.868045 11.733195 -18.851007 -52.13691 -100.921842 84.497974 -73.565846 88.100984 -4.898094 81.86756 -154.689315 86.645355 -71.741212 -99.800894 7.341215 73.153615 -17.001229 -21.231301 44.576018 -163.075268 27.851545 54.991809 -39.543007 1.077382 25.38352 -0.295452 -55.390394 -0.027411 -1.25586 56.671916 -180.0 -1.207492 5.69922 -171.040669 -82.384029 17.188937 90.20947 46.520731 15.085122 108.260691 6.576594 47.840821 171.159747 5.505567 -1.355266 60.595089 -71.37857 -0.159521 87.251238
1.1468 60.967000000000006 0.37420000000000003 0.524407 -49.940741 7.859738 -3.027388 2.67352 -73.29252 2.831019 -1.457569 75.653621 5.788103 13.947166 62.41333 -28.512375 -12.55473 -87.289099 -69.589456 -9.095821 13.060455 4.890482 -0.111072 -2.600566 2.627218 -0.488054 -3.736819 -119.728161 -6.003438 169.409365 -178.498117 -11.780015 -122.459879 -5.528674 2.41609 -5.458582 13.286999 17.403345 -4.767601 -171.03883 -47.312112 104.127626 -141.765006 -11.768176 134.861083 -6.342741 0.853643 -101.71877 5.051522 -33.828395 -2.487643 -96.703897 35.301286 91.275674 -107.75364 22.332602 113.589948 58.668284 -10.649356 16.407167 -168.688962 46.801677 -131.120938 -69.981609 -48.916256 -90.464454 2.767378 17.513274 -8.293569 117.315583 -20.59136 -147.844297 172.985478 10.900546 125.836673 -8.880881 -9.218762 3.234053 -115.800891 -87.778379 -44.04324 11.830594 14.528688 -16.851545 136.845069 48.770108 -80.826473 176.054345 -5.564649 -49.205919 170.03507 -7.565251 -120.26314 -89.753885 6.610561 -72.205798 52.546211 -33.782203 33.837109 -109.1256 -39.642966 -18.229785 179.859297 24.213391 72.587647 -88.924138 4.158311 62.695384 -129.431636 67.808494 -52.713583 145.177061 29.614463 129.077605 57.687584 -33.200658 139.746451 28.845865 62.996695 73.638296 -6.885998 -22.498139 5.593041 20.577795 -10.291577 -115.448408 -50.167651 -32.562612 20.472917 8.789209 31.5728 94.449348
2.0289 59.9653 0.127 4.476442 -45.351794 6.802887 -9.144486 10.507431 -40.109388 11.748731 -7.238625 36.980854 4.098904 44.827992 156.486931 -18.878605 44.829207 -176.412613 -25.824122 -1.277457 5.568123 10.021262 0.330118 3.763872 58.296343 -88.357132 39.869149 -0.795198 -5.631107 -38.202427 160.337527 73.766324 -107.987358 -4.647995 22.788775 -0.841088 -163.50179 -8.111376 97.331196 -34.007262 -11.018371 13.368185 -36.093241 44.51147 23.923537 -12.288362 -20.887401 0.339955 -169.319757 18.551912 133.971154 -87.592069 52.756347 68.457404 95.015046 -67.818115 91.940008 77.685516 75.329623 -128.694129 -89.073102 -19.027504 -69.460576 35.511324 -42.761412 -26.69667 -0.652086 -45.06043 8.403791 -69.808008 15.686974 28.481851 -27.584996 20.411574 -42.979699 1.332118 34.803843 2.79523 105.965855 50.299043 -68.03279 147.024215 -36.764375 -86.444793 8.358541 -26.317882 35.381935 160.883659 -66.40849 -102.485151 172.450888 -7.223921 -137.796729 6.429086 34.476314 -35.559941 154.572088 -5.402923 176.46593 137.048148 5.108798 173.392481 -24.303063 39.285229 33.811429 -159.753014 -43.180774 174.945741 -0.850721 1.776628 -1.338695 -46.986056 -61.690964 -180.0 -78.139441 -50.094528 4.625963 160.867991 -61.820971 -102.957847 -83.68834 28.679734 -30.286068 111.563734 15.152241 31.161287 -15.474808 58.563058 -23.063526 177.467214 -7.417789 -65.859256
